<?xml version="1.0" encoding="UTF-8"?>
<svg id="Capa_1" data-name="Capa 1" xmlns="http://www.w3.org/2000/svg" viewBox="0 0 2968.42 2341.65">
  <defs>
    <style>
      .cls-1 {
        fill: none;
        stroke: #dda2c9;
        stroke-miterlimit: 10;
        stroke-width: 4px;
      }
    </style>
  </defs>
  <path class="cls-1" d="M2964.71,761.4c-11.1,162.11-112.13,290.76-246.2,375.32-22.18,13.99-48.03,25.16-70.25,39.37-69.18,44.25-161.66,129.01-194.85,206.16-24.1,56.04-27.32,113.6-7.62,171.6,17.03,50.14,51.43,84.51,72.33,133.5,77.89,182.52,131.47,389.36-56.44,523.61-49.55,35.4-142.81,82.01-199.74,105.07-52.28,21.18-182.1,25.43-240.09,22.22-266.67-14.79-516.37,58.93-649.46-144.7-23.33-35.7-30.22-59.73-62.8-88.87-107.31-95.98-237.95-150.72-381.8-98.26-56.78,20.71-100.4,65.02-152.62,93.36-192.35,104.42-345.44-80.02-540.8-222.92-121.8-89.09-185.7-172.12-222.46-319.73-69.82-280.41,247.13-399.76,382.64-589.35,46.28-64.75,40.32-145.44,56.37-220.4,1.08-5.06,6.37-19.58,8.62-29.29,55.16-237.86,154.05-435.69,363.67-571.96,153.56-99.83,351.19-199.86,531.56-107.71,111.95,57.2,205.12,28.16,267.93,128.8,109.81,175.96,280.52,227.63,475.32,148.16,110.79-45.19,174.4,19.04,289.62-14.38,112.54-32.64,271.82-57.46,379.2-.67,37.95,20.07,84.39,55.76,111.87,88.65,53.44,63.96,80.57,173.47,85.99,254.8,2.26,33.82,2.31,83.8,0,117.59Z"/>
</svg>