<?xml version="1.0" encoding="UTF-8"?>
<svg id="Capa_1" data-name="Capa 1" xmlns="http://www.w3.org/2000/svg" viewBox="0 0 606.47 274.65">
  <defs>
    <style>
      .cls-1 {
        fill: #e1a6cb;
        opacity: .49;
      }

      .cls-2 {
        fill: #a57795;
        opacity: .54;
      }

      .cls-3 {
        fill: #dd9dc6;
      }
    </style>
  </defs>
  <path class="cls-1" d="M606.45,136.39c.86,31.24-20.22,72.06-93.6,77.65-14.07,1.07-64.18-4.68-75.87-3.08-11.74,1.61-52.88,22.2-58.13,25.32-25.5,15.14-60.61,25-99.59,26.07-45.72,1.26-86.8-9.85-113.67-28.18-18.42-12.56-41.74-22.89-69.01-29.83-39.07-9.95-65.62-29.54-66.26-52.76-.66-24.06-23.91-56.83,16.9-68.67,26.01-7.55,47.56-18.97,60.78-32.91,21.41-22.59,99.36-34.72,149.9-44.42,40.13-7.7,125-.76,149.58,13.83,16.35,9.71,36.6,17.48,60.03,21.85,52,9.71,137.95,59,138.94,95.14Z"/>
  <path class="cls-2" d="M576.67,76.07c7.38,30.37-4.69,74.7-75.28,95.52-13.54,3.99-63.74,8.86-74.83,12.87-11.15,4.03-47.06,32.78-51.55,36.92-21.77,20.14-54.04,37.13-91.93,46.34-44.44,10.8-86.94,8.54-117.05-3.77-20.64-8.43-45.6-13.64-73.72-14.73-40.29-1.56-70.35-15.15-75.83-37.73s-35.27-50.56,2.15-70.69c23.85-12.83,42.54-28.5,52.55-44.91,16.21-26.57,89.89-54.75,137.28-74.81C246.09,5.16,330.53-5.81,357.62,3.31c18.02,6.07,39.45,9.43,63.27,8.8,52.88-1.39,147.24,28.82,155.78,63.96Z"/>
  <path class="cls-3" d="M11.96,154.98c.32,29.34,22.93,66.85,96.47,69.39,14.1.49,63.96-6.75,75.7-5.67s53.68,18.88,59.05,21.61c26.06,13.26,61.51,21.22,100.5,20.79,45.73-.5,86.37-12.43,112.53-30.61,17.93-12.46,40.84-23,67.83-30.52,38.66-10.77,64.46-30.12,64.22-51.93s21.75-54.18-19.48-63.79c-26.28-6.12-48.25-16.04-61.98-28.64-22.25-20.4-100.6-28.92-151.47-36.16-40.4-5.75-124.94,3.88-148.95,18.47-15.97,9.71-35.92,17.74-59.16,22.7C95.61,71.65,11.59,121.04,11.96,154.98Z"/>
</svg>