<?xml version="1.0" encoding="UTF-8"?>
<svg id="Capa_1" data-name="Capa 1" xmlns="http://www.w3.org/2000/svg" viewBox="0 0 581.93 276.71">
  <defs>
    <style>
      .cls-1 {
        fill: #6c5783;
      }

      .cls-1, .cls-2 {
        opacity: .54;
      }

      .cls-3, .cls-2 {
        fill: #9175b3;
      }
    </style>
  </defs>
  <path class="cls-2" d="M581.72,180.59c-3.98,31-29.78,68.24-98.69,62.98-13.22-1.01-58.81-14.05-69.89-14.19-11.14-.13-52.44,14.17-57.79,16.48-25.97,11.21-60.04,15.8-96.36,11.13-42.59-5.47-79-22.48-101.11-44.55-15.16-15.12-35.21-28.75-59.43-39.62-34.71-15.58-56.34-38.83-53.38-61.87,3.07-23.88-13.48-59.67,26.18-65.37,25.28-3.64,47.02-11.75,61.41-23.59C155.98,2.8,230.12,2.27,278.48.11c38.4-1.72,116.05,17.61,136.61,35.64,13.68,11.99,31.27,22.65,52.33,30.41,46.74,17.23,118.91,78.57,114.3,114.43Z"/>
  <path class="cls-1" d="M563.19,83c7.38,30.37-3.54,74.42-70.3,94.31-12.8,3.81-60.41,8.05-70.89,11.91-10.53,3.88-44.29,32.1-48.49,36.18-20.42,19.82-50.85,36.36-86.72,45.07-42.07,10.22-82.44,7.44-111.19-5.19-19.7-8.66-43.47-14.16-70.18-15.59-38.27-2.05-66.98-15.97-72.47-38.55-5.68-23.39-34.11-50.84,1.18-70.45,22.49-12.49,40.04-27.89,49.34-44.13,15.07-26.29,84.68-53.48,129.43-72.91,35.54-15.42,115.58-25.33,141.41-15.9,17.19,6.27,37.58,9.89,60.18,9.55,50.19-.74,140.16,30.54,148.69,65.68Z"/>
  <path class="cls-3" d="M0,124.87c.32-29.34,22.93-66.85,96.47-69.39,14.1-.49,63.96,6.75,75.7,5.67s53.68-18.88,59.05-21.61c26.06-13.26,61.51-21.22,100.5-20.79,45.73.5,86.37,12.43,112.53,30.61,17.93,12.46,40.84,23,67.83,30.52,38.66,10.77,64.46,30.12,64.22,51.93s21.75,54.18-19.48,63.79c-26.28,6.12-48.25,16.04-61.98,28.64-22.25,20.4-100.6,28.92-151.47,36.16-40.4,5.75-124.94-3.88-148.95-18.47-15.97-9.71-35.92-17.74-59.16-22.7C83.65,208.2-.37,158.81,0,124.87Z"/>
</svg>