<?xml version="1.0" encoding="UTF-8"?>
<svg id="Capa_1" data-name="Capa 1" xmlns="http://www.w3.org/2000/svg" viewBox="0 0 583.27 261.45">
  <defs>
    <style>
      .cls-1 {
        fill: #5fa3c2;
        opacity: .5;
      }

      .cls-2 {
        fill: #74c9f2;
      }
    </style>
  </defs>
  <path class="cls-1" d="M.02,118.89c-.81-29.33,20.34-67.68,93.73-73.05,14.07-1.03,64.17,4.29,75.86,2.76s52.92-20.93,58.17-23.86C253.31,10.49,288.43,1.17,327.41.1c45.72-1.26,86.78,9.1,113.62,26.26,18.39,11.76,41.7,21.41,68.95,27.89,39.05,9.28,65.57,27.62,66.17,49.42.62,22.59,23.81,53.3-17.01,64.49-26.02,7.13-47.59,17.88-60.84,31-21.45,21.24-99.41,32.76-149.97,41.95-40.15,7.3-124.99.92-149.55-12.73-16.34-9.08-36.57-16.35-59.99-20.41C86.81,198.95.95,152.82.02,118.89Z"/>
  <path class="cls-2" d="M581.9,95.54c4.8,28.94-10.92,69.83-82.89,85.15-13.8,2.94-64.15,4.51-75.53,7.61s-49.57,27.95-54.37,31.58c-23.34,17.6-56.87,31.62-95.34,38-45.12,7.48-87.21,2.82-116.14-10.52-19.83-9.14-44.23-15.52-72.11-18.22-39.95-3.87-68.72-18.42-72.29-39.93s-30.86-49.56,8.06-66.21c24.81-10.61,44.71-24.21,56.04-39.01,18.35-23.97,94.01-46.02,142.84-62.02,38.77-12.71,123.7-17.97,149.89-7.79,17.42,6.77,38.46,11.2,62.21,12.04,52.73,1.85,144.08,35.83,149.63,69.32Z"/>
</svg>