<?xml version="1.0" encoding="UTF-8"?>
<svg id="Capa_1" data-name="Capa 1" xmlns="http://www.w3.org/2000/svg" xmlns:xlink="http://www.w3.org/1999/xlink" viewBox="0 0 517.06 261.84">
  <defs>
    <style>
      .cls-1 {
        fill: url(#Degradado_sin_nombre_21-3);
      }

      .cls-2 {
        fill: url(#Degradado_sin_nombre_21-19);
      }

      .cls-3 {
        fill: url(#Degradado_sin_nombre_21-7);
      }

      .cls-4 {
        fill: url(#Degradado_sin_nombre_21-16);
      }

      .cls-5 {
        fill: url(#Degradado_sin_nombre_21-2);
      }

      .cls-6 {
        fill: url(#Degradado_sin_nombre_21-13);
      }

      .cls-7 {
        fill: url(#Degradado_sin_nombre_21-14);
      }

      .cls-8 {
        fill: url(#Degradado_sin_nombre_21-20);
      }

      .cls-9 {
        fill: url(#Degradado_sin_nombre_21-23);
      }

      .cls-10 {
        fill: url(#Degradado_sin_nombre_21-6);
      }

      .cls-11 {
        fill: url(#Degradado_sin_nombre_21-5);
      }

      .cls-12 {
        fill: url(#Degradado_sin_nombre_21-18);
      }

      .cls-13 {
        fill: url(#Degradado_sin_nombre_21-17);
      }

      .cls-14 {
        fill: url(#Degradado_sin_nombre_21-12);
      }

      .cls-15 {
        fill: url(#Degradado_sin_nombre_21);
      }

      .cls-16 {
        fill: url(#Degradado_sin_nombre_21-8);
      }

      .cls-17 {
        fill: url(#Degradado_sin_nombre_21-9);
      }

      .cls-18 {
        fill: url(#Degradado_sin_nombre_21-21);
      }

      .cls-19 {
        fill: url(#Degradado_sin_nombre_21-15);
      }

      .cls-20 {
        fill: url(#Degradado_sin_nombre_21-4);
      }

      .cls-21 {
        fill: url(#Degradado_sin_nombre_21-11);
      }

      .cls-22 {
        fill: url(#Degradado_sin_nombre_21-10);
      }

      .cls-23 {
        fill: #fbadc8;
      }

      .cls-24 {
        fill: url(#Degradado_sin_nombre_21-22);
      }
    </style>
    <linearGradient id="Degradado_sin_nombre_21" data-name="Degradado sin nombre 21" x1="127.29" y1="220.59" x2="127.29" y2="13.61" gradientUnits="userSpaceOnUse">
      <stop offset="0" stop-color="#d4a4d7"/>
      <stop offset=".8" stop-color="#f6acc5"/>
    </linearGradient>
    <linearGradient id="Degradado_sin_nombre_21-2" data-name="Degradado sin nombre 21" x1="435.49" y1="176.51" x2="435.49" y2="81.3" xlink:href="#Degradado_sin_nombre_21"/>
    <linearGradient id="Degradado_sin_nombre_21-3" data-name="Degradado sin nombre 21" x1="261.92" y1="164.92" x2="261.92" y2="93.26" xlink:href="#Degradado_sin_nombre_21"/>
    <linearGradient id="Degradado_sin_nombre_21-4" data-name="Degradado sin nombre 21" x1="56.34" y1="171.1" x2="56.34" y2="86.46" xlink:href="#Degradado_sin_nombre_21"/>
    <linearGradient id="Degradado_sin_nombre_21-5" data-name="Degradado sin nombre 21" x1="282.11" y1="204.28" x2="282.11" y2="107.12" xlink:href="#Degradado_sin_nombre_21"/>
    <linearGradient id="Degradado_sin_nombre_21-6" data-name="Degradado sin nombre 21" x1="313.07" y1="206.38" x2="313.07" y2="175.98" xlink:href="#Degradado_sin_nombre_21"/>
    <linearGradient id="Degradado_sin_nombre_21-7" data-name="Degradado sin nombre 21" x1="349.61" y1="261.45" x2="349.61" y2="241.95" xlink:href="#Degradado_sin_nombre_21"/>
    <linearGradient id="Degradado_sin_nombre_21-8" data-name="Degradado sin nombre 21" x1="119.52" y1="261.4" x2="119.52" y2="241.93" xlink:href="#Degradado_sin_nombre_21"/>
    <linearGradient id="Degradado_sin_nombre_21-9" data-name="Degradado sin nombre 21" x1="393.5" y1="261.45" x2="393.5" y2="242.05" xlink:href="#Degradado_sin_nombre_21"/>
    <linearGradient id="Degradado_sin_nombre_21-10" data-name="Degradado sin nombre 21" x1="252.86" y1="261.4" x2="252.86" y2="242.04" xlink:href="#Degradado_sin_nombre_21"/>
    <linearGradient id="Degradado_sin_nombre_21-11" data-name="Degradado sin nombre 21" x1="325.44" y1="261.84" x2="325.44" y2="241.67" xlink:href="#Degradado_sin_nombre_21"/>
    <linearGradient id="Degradado_sin_nombre_21-12" data-name="Degradado sin nombre 21" x1="151.38" y1="261.73" x2="151.38" y2="241.76" xlink:href="#Degradado_sin_nombre_21"/>
    <linearGradient id="Degradado_sin_nombre_21-13" data-name="Degradado sin nombre 21" x1="201.62" y1="261.46" x2="201.62" y2="241.89" xlink:href="#Degradado_sin_nombre_21"/>
    <linearGradient id="Degradado_sin_nombre_21-14" data-name="Degradado sin nombre 21" x1="294.61" y1="261.79" x2="294.61" y2="241.69" xlink:href="#Degradado_sin_nombre_21"/>
    <linearGradient id="Degradado_sin_nombre_21-15" data-name="Degradado sin nombre 21" x1="372.32" y1="261.4" x2="372.32" y2="242.16" xlink:href="#Degradado_sin_nombre_21"/>
    <linearGradient id="Degradado_sin_nombre_21-16" data-name="Degradado sin nombre 21" x1="275.52" y1="261.4" x2="275.52" y2="242.16" xlink:href="#Degradado_sin_nombre_21"/>
    <linearGradient id="Degradado_sin_nombre_21-17" data-name="Degradado sin nombre 21" x1="182.56" y1="261.4" x2="182.56" y2="241.86" xlink:href="#Degradado_sin_nombre_21"/>
    <linearGradient id="Degradado_sin_nombre_21-18" data-name="Degradado sin nombre 21" x1="223.37" y1="261.4" x2="223.37" y2="241.99" xlink:href="#Degradado_sin_nombre_21"/>
    <linearGradient id="Degradado_sin_nombre_21-19" data-name="Degradado sin nombre 21" x1="328.08" y1="183.69" x2="328.08" y2="167.86" xlink:href="#Degradado_sin_nombre_21"/>
    <linearGradient id="Degradado_sin_nombre_21-20" data-name="Degradado sin nombre 21" x1="168.53" y1="261.4" x2="168.53" y2="241.78" xlink:href="#Degradado_sin_nombre_21"/>
    <linearGradient id="Degradado_sin_nombre_21-21" data-name="Degradado sin nombre 21" x1="309.2" y1="261.4" x2="309.2" y2="242.16" xlink:href="#Degradado_sin_nombre_21"/>
    <linearGradient id="Degradado_sin_nombre_21-22" data-name="Degradado sin nombre 21" x1="135.81" y1="261.4" x2="135.81" y2="241.91" xlink:href="#Degradado_sin_nombre_21"/>
    <linearGradient id="Degradado_sin_nombre_21-23" data-name="Degradado sin nombre 21" x1="493.17" y1="161.75" x2="493.17" y2="136.09" xlink:href="#Degradado_sin_nombre_21"/>
  </defs>
  <path class="cls-15" d="M174.88,13.62c-.12.69-.78.66-1.29.82-14.91,4.63-24.96,7.37-37.38,17.65-1.28,1.06-7.65,6.72-8.09,7.69-.72,1.59-.03,9.59-.2,12.11-.91,13.56-7.21,27.26-9.61,40.59l10.57-21.17c6.21-11.55,17.27-29.78,29.06-35.97,5.08-2.67,10.95-2.51,14.63,2.32,8.77,11.5-2.71,38.86-6.36,51.36-.1.36-.45,1.53,0,1.55,8.03-14.39,15.95-29.18,26.76-41.74,6.53-7.59,20.26-20.86,31.05-14.51,8.75,5.15,5.1,19.1,3.09,27.09-9.78,38.81-45.77,99.91-21.99,138.01,10.01,16.04,29.45,21.72,45.7,10.74.22-.15,4.12-3.66,3.72-2.44-4.21,8.09-14.36,12.65-23.24,12.85-22.21.5-38.57-12.8-43.54-34.2-8.78-37.81,11.2-77.11,23.3-111.77,2.55-7.31,8.42-23.16,7.28-30.38-.71-4.5-6.59-2.47-9.22-1.18-18.33,8.95-38.97,48.6-47.66,67.01-6.57,13.9-12.44,28.25-17.45,42.77-3.53.17-7.86,1.48-11.28,1.41-.46,0-1.16-.07-.95-.75,9.9-27.65,22.04-54.69,29.6-83.15,1.86-6.99,5.24-19.08,3.32-25.96-1.34-4.78-6.33-2.45-9.19-.3-12.86,9.66-26.69,35.98-34.08,50.58-12.07,23.85-23.95,60.02-43.15,78.06C43.74,205.18,4.07,175.3.15,134.62c-.07-.7-.57-5.39.76-4.42,4.08,18.11,13.45,41.03,32.24,48,32.21,11.94,51.63-29.5,61.74-52.74s19.73-50.12,21.87-74.33c.15-1.71-.23-3.73.03-5.36.5-3.13,14.15-15.71,17.33-18.07,11.36-8.44,26.49-14.37,40.77-14.07Z"/>
  <path class="cls-5" d="M440.44,102.11c4.51,1.13,9.16-.18,13.56-1.26,3.6-.88,10.03-4.34,12.03.88,1.22,3.19-.17,5.54-1.66,8.34-5.93,11.1-24.94,32.26-23.13,44.92.83,5.84,9.11,1.26,11.87-.78,12.66-9.35,20.53-29.12,38.33-30.55,28.27-2.27,34.39,36.35,12.09,49.02-16.48,9.36-37.76.63-45.39-15.94-.44-.31-5.03,3.63-5.97,4.22-13.27,8.28-25.52,3.62-21.47-13.39,3.57-14.97,15.18-26.2,21.68-39.7-4.73,1.16-9.6,1.28-14.44,1.11-3.08,5.07-5.71,10.37-8.87,15.4-10.58,16.81-29.22,39.56-50.76,40.45-9.91.41-20.08-3.07-23.19-13.4-7.11-23.61,19.1-55.94,42.85-57.75,14.85-1.13,19.93,11.02,11.86,22.62-8.79,12.64-29,19.56-43.59,22.03-1.91,9.6,1.26,20.04,12.42,20.72,18.19,1.11,36.69-21.83,45.63-35.6,3.22-4.96,6.14-10.13,8.85-15.39-15.02-2.08-13.65-23.4-.26-26.42s11.12,12.99,7.56,20.45ZM435.82,100.96c1.83-2.62,5.64-18.55-1.29-14.95-4.22,2.19-4.32,13.56,1.29,14.95ZM404.54,99.52c-2.34-2.37-8.56-.51-11.18.73-12.08,5.72-21.73,19.94-26.05,32.25,12.13-1.42,27.16-9.77,34.41-19.65,2.21-3.01,6.06-10.02,2.81-13.33ZM467.52,163.15c11.9,13.05,34.58,12.97,43.17-3.71,5.87-11.4,2.08-27.15-11.21-30.75-17.44-4.73-28.04,13.97-38.08,24.59-.36.73,1.47,3.37,1.98,4.19,1.09,1.77,2.76,4.15,4.14,5.67Z"/>
  <path class="cls-23" d="M265.32,64.02c-4.23-5.19-7.67-11.11-11.94-16.34C229.24,18.05,193.54,1.73,155.24,12.65c-31.71,9.05-51.64,38.41-61.19,68.5-.06.2-.11.63.18.57,6.82-7.43,11.53-16.98,15.59-26.16.7.1.42,2,.37,2.49-.97,10.15-9.83,26.57-16.73,34.06-.97,1.05-3.78,4.15-5.04,4.22s-4.63-2.18-5.91-2.92c-4.09-2.36-8.85-5.37-12.7-8.08-1.39-.98-4.91-3.08-5.06-4.57-.27-2.6,3.22-12.01,4.36-14.92,5.47-14.03,15.85-28.84,29.45-35.97.39-.2,2.08-.98,1.62.08-.2.48-6.45,5.95-7.51,7.12-6.31,6.95-11.47,14.95-15.38,23.48-1.43,3.72-2.63,7.56-3.09,11.53,6.14-9.99,12.26-20.05,19.83-29.04C120.57,11.58,158.11-8.13,200.06,3.26c24.85,6.75,44.76,25.14,58.12,46.56,1.98,3.18,5.69,9.04,6.85,12.39.21.61.4,1.15.3,1.82Z"/>
  <path class="cls-1" d="M275.2,97.24c.51.46,1.34,2.3,2.2,2.14,2.9-2.59,5.66-4.74,9.76-4.84.87-.02,1.55.72,2.42.26.48.86-2.39,5.08-2.9,6.14-3.66,7.6-4.77,15.61-15.37,14.63-1.61-.15-4.33-.77-5.58-1.73,3.61-1.23,8.63-2.87,9.2-7.34.94-7.31-7.95-6.63-12.75-5.43-13.77,3.42-25.34,20.37-28.98,33.36-2.01,7.2-3.73,23.2,7.69,22.31,8.26-.64,17.91-14.63,21.82-21.28,2.09-3.55,4.97-11.46,7.25-13.91,2.55-2.74,10.95-2.4,10.38,2.27-2.46,8.04-7.22,16-9.5,24-1.82,6.39-3.35,14.45,6.14,9.22,11.05-6.09,18.06-20.65,25.22-30.19.56-.75,1.34-2.16,2.4-1.45.51,3.89-3.93,11.7-6,15.16-4.98,8.33-16.75,23.03-26.95,24.23-13.33,1.56-11.7-10.48-9.78-19.58-7.11,10.09-19.03,22.33-32.58,16.22-19.31-8.7-6.62-38.93,3.35-50.65,8.54-10.05,30.28-24.65,42.57-13.54Z"/>
  <path class="cls-20" d="M80.5,139.74c-3,1.98-6.57,2.75-9.8,4.24-11.51,5.3-23.29,13.09-32.66,21.6-2.4,2.18-4.79,6.5-8.76,5.32-.94-.28-2.22-2.08-2.12-3.09.19-2.01,1.65-5.68,2.12-7.91,1.45-6.89,2.64-14.02,3.19-21.05.79-10.08.15-20.22.46-30.32.2-.66,5.65-3.22,6.82-3.95,7.9-4.9,11.93-10.69,18.5-16.13,3.31-2.74,3.02-2.44,6.52-.35,5.75,3.45,13.08,8.04,18.47,11.93.7.51,1.9,1.24,2.18,2.05.61,1.8-1.58,9.03-2.02,11.5-1.55,8.73-2.4,17.3-2.89,26.16ZM76.64,104.9l-15.07-9.31c-6.23,6.76-13.53,12.28-21.21,17.29l.2,18.29-1.94,18.26c1.43-1.89,2.75-4.21,3.91-6.28,2.92-5.19,5.69-10.47,8.63-15.65.38-1.84-2.78-3.98.39-7.27,4.47-4.64,12-.54,9.79,5.94-1.34,3.94-5.22,2.82-6.89,4.65l-13.14,22.45c9.39-7.61,19.9-13.96,31.12-18.52.09-2.19.2-4.45.49-6.63.94-7.07,3.35-15.11,3.94-21.86.04-.47.16-1-.23-1.37Z"/>
  <path class="cls-11" d="M360,107.12c-8.24,9.21-22.33,7.99-33.46,6.17-3.99,12.08-7.55,24.35-12.05,36.25-7.74,20.46-16.83,37.32-37.28,47.37-20.35,10-56.52,12.61-69.43-10.14-4.85-8.55-5.08-21.83,1.35-29.63-.35,2.69-1.6,5.23-1.87,7.93-2.99,29.75,29.06,38.84,52.68,31.89,36.25-10.66,42.65-53.01,54.27-83.49-5.25.16-10.81,1.48-15.21,4.42-.4-.65.91-2.1,1.33-2.51,10.66-10.27,32.88-2.82,46.34-4.46,4.83-.59,8.8-2.26,13.33-3.79Z"/>
  <path class="cls-23" d="M445.83,10.93c1.35,1.24-.26,7.52-.96,9.22-8.81,21.21-44.22,22.22-63.48,22.72-22.22.58-74.56-4.4-92,8.45-14.61,10.76-7.22,30.65,10.73,28.81,3.44-.35,6.07-2.02,9.09-3.41-.85,2.16-3.59,4.02-5.66,4.92-17.49,7.54-35.35-13.99-21.27-31.26,17.24-21.14,68.06-15.75,92.96-16.34,17.38-.42,54.05-1.69,65.8-15.79,1.96-2.35,2.46-4.53,3.94-6.82.2-.31.25-1.05.86-.49Z"/>
  <path class="cls-23" d="M330.65,98.54c-.85.69-4.46.05-5.88.09-1.99.06-4.2.75-6.33.4l.02-.94c6.25-15.23,8.34-32.72,19.23-45.61-2.37-.07-4.76.07-7.14.01-12.09-.29-34.33-.06-43.1,9.59-1.42,1.56-1.73,3.49-3.07,5.01-1.34-3.18,1.13-7.45,3.27-9.82,9.35-10.34,34.72-11.12,47.94-10.97,22.37.24,44.96,2.3,67.28-.43,11.86-1.45,25.12-4.41,34.89-11.48-.52,2.6-3.2,4.6-5.26,6.09-14.36,10.42-38.42,12.25-55.73,12.78-7.25.22-15.7-.71-22.72-.01s-10.66,7.42-13.08,13.08c-4.35,10.16-6.26,21.88-10.31,32.21Z"/>
  <path class="cls-23" d="M366.54,93.26c-.94,9.34-9.57,13.66-18,14.9-16.23,2.38-37.83-7.12-50.32,7.03-.54.61-2.31,4.15-2.83,2.45-.81-2.67,1.04-5.98,2.65-8.02,13.65-17.27,45.21-.81,63.01-12.03,1.92-1.21,3.43-3.3,5.48-4.33Z"/>
  <path class="cls-23" d="M459.06,61.57c2.28,2.29,5.04,2.28,7.86,3.11.44.13,1.63.32,1.62.88-3.56.1-7.8.5-10.21,3.46s-2.35,7.36-2.89,10.97c-.1.67.2.65-.76.58-.18-6.48-1.79-13.25-9.08-14.59-1.25-.23-2.47.15-3.86-.37-.38-.14-1.19-.26-.54-.81.27-.23,5.48-.77,6.92-1.35,5.37-2.17,6.49-8.89,6.55-14.04.75.16.68.77.77,1.34.58,3.66.81,8.03,3.6,10.83Z"/>
  <path class="cls-10" d="M326.52,191.38c.1,1.03,0,.62-.58.76-3.66.87-7.19.62-9.81,4.05-2.43,3.18-1.85,6.7-2.89,10.2-.97-4.96-1.42-10.57-6.73-12.89-2.3-1.01-5.11-.56-6.93-2.11,1.92.11,4.04-.25,5.86-.88,6.84-2.37,6.61-8.37,7.61-14.52.75.16.68.77.77,1.34.35,2.14.25,4.32.87,6.44,1.65,5.55,6.5,7.23,11.83,7.61Z"/>
  <path class="cls-3" d="M355,242.35c.19-.75,2.44-.23,3.08-.19.12.15-.39.49-.39.57v18.66l-2.62-.08-10.85-13.77v13.85c-.56-.11-2.48.17-2.68-.02-.81-.78-.18-16.89-.41-19.22,1.05.04,2.29-.3,3.11.55l10.75,13.69v-14.04Z"/>
  <path class="cls-16" d="M110.22,261.4v-19.24c8.89-.7,20.15-.53,18.44,11.7-.39,2.77-4.71,7.54-7.47,7.54h-10.97ZM112.91,259.09h5.58c.3,0,2.72-.53,3.17-.68,4.44-1.48,5.57-8.67,2.41-11.83-.78-.78-3.81-2.12-4.81-2.12h-6.35v14.62Z"/>
  <path class="cls-17" d="M385.41,242.16c3.95.34,11.08-1.27,14.07,1.91,2.34,2.48,2.12,7.02-.4,9.26-.53.47-1.97.83-2.1,1.38-.25,1.05,5.06,6.29,4.59,6.69-.98-.13-2.64.31-3.46-.19-1.03-.63-3.54-5.38-4.33-5.71-1.55-.65-4-.06-5.68-.26v6.16h-2.69v-19.24ZM388.1,252.55h6.74c2.51,0,4.61-4.48,2.14-6.75-.38-.35-2.17-1.33-2.52-1.33h-6.35v8.08Z"/>
  <path class="cls-22" d="M243.77,261.4v-19.24c5.08.26,10.67-1.26,14.98,2.15s4.22,11.8-.16,15.16c-.69.53-3.53,1.93-4.23,1.93h-10.58ZM246.46,259.09c4.41-.04,10.41.51,12.23-4.51,1.02-2.81.45-6.72-2.09-8.52-.66-.47-3.89-1.59-4.56-1.59h-5.58v14.62Z"/>
  <path class="cls-21" d="M334.22,259.28c-.31,1.09-4.49,2.33-5.62,2.46-16.18,1.81-16.23-22.14.39-19.93,2.21.29,7.56,2.68,4.27,4.93-4.28-3.98-12.96-2.91-13.66,3.69-.66,6.17,3.28,9.59,9.34,8.57.47-.08,2.59-.84,2.59-1.25v-6.35h2.69c-.38,2.07.51,6.11,0,7.89Z"/>
  <path class="cls-14" d="M160.25,259.28c-.57,1.97-7.51,2.65-9.33,2.4-11.63-1.57-10.98-18.23-.78-19.81,2.17-.34,9.28,0,10.04,2.48,1.08,3.54-2.15,1.26-3.2.88-6.35-2.3-12.73.39-11.71,7.86.69,5.09,5.71,6.91,10.28,5.73,3.55-.91,1.57-4.66,1.61-7.43h3.08c-.38,2.06.51,6.11,0,7.88Z"/>
  <path class="cls-6" d="M211.83,261.4c-.89-.1-2.33.27-3.09-.18-.83-.5-1.05-3.9-2.57-4.36-.92-.28-7.56-.24-8.8-.1-2.29.27-2.12,4.08-2.93,4.57-.53.32-2.26-.08-3.01.06-.15-.13,1.01-2.77,1.21-3.21.89-1.99,6.93-15.32,7.66-15.81.88-.59,2.59-.82,3.01.42l8.52,18.6ZM205.28,254.09l-3.66-8.85-4.04,8.85h7.7Z"/>
  <path class="cls-7" d="M300.99,252.68c1.76,1.74,1.78,5.16.13,6.99-2.59,2.87-8.93,2.41-12.24,1.07-2.42-.98-2.2-.96-1.62-3.57,1.71.27,3.13,1.55,4.9,1.83,2.26.35,8.91-.02,7.14-3.65-1.43-2.92-11.39-1.43-12.05-6.82-.71-5.84,4.14-7.22,9.05-6.74,2.22.22,7.19,1.44,4.2,4.2-2.39-1.81-10.61-3.07-10.5,1.38.09,3.59,8.51,2.86,10.99,5.31Z"/>
  <path class="cls-19" d="M379.63,242.16v2.31h-11.93v6.16h9.62v2.69h-8.66c-.12,0-.55-.53-.96-.38v6.16h11.93v2.31h-14.63v-19.24h14.63Z"/>
  <path class="cls-4" d="M282.26,242.16v2.31h-11.16v6.16h8.85v2.69h-8.27c-.12,0-.3-.49-.58-.38v6.16h11.55v2.31h-14.24v-19.24h13.86Z"/>
  <path class="cls-13" d="M190.66,242.16v2.31h-6.54v16.35c0,.08.58.44.38.57h-3.08s0-16.93,0-16.93h-6.93c0-.66-.24-2.54.58-2.61.16-.01.29.3.38.3h15.2Z"/>
  <path class="cls-12" d="M219.14,259.09h11.16v2.31h-13.86v-19.24c0-.14,2.69-.38,2.69.19v16.74Z"/>
  <path class="cls-23" d="M424.28,1.3c.33,3.2.65,5.74,3.86,7.11.71.3,3.78.95,3.85,1.16.26.81-.46.51-.9.63-5.1,1.35-6.43,1.59-6.81,7.64-1.1-.75-.75-2.51-1.23-3.96-1.27-3.79-4.37-2.5-6.85-4.5,5.79-.31,6.57-2.4,7.32-7.5.08-.52.22-1.25.76-.58Z"/>
  <path class="cls-23" d="M468.92,57.48l-1.14-3.67c-1.01-2.83-4.25-3.46-6.94-3.26.98-1.2,3.11-1.09,4.5-1.84,1.77-.96,2.33-2.33,2.71-4.22.24-1.19-.39-2.96.86-3.56.13,3.03.73,6.96,4.02,8.1,1.17.41,2.41.08,3.28.94-.86.97-2.21.43-3.47.76-2.97.77-3.51,4.2-3.84,6.74Z"/>
  <path class="cls-2" d="M328.44,167.91c-.22,2.53.37,5.71,2.81,7,1.01.54,2.28.55,3.25.98.53.24.61.05.48.86-5.66-.42-5.59,1.93-6.73,6.17-.1.36-.1.87-.58.76-.26-2.32-.62-5.33-2.98-6.45-1.34-.64-3.53.03-3.57-1.62,5.4.23,5.52-2.64,6.53-6.76.16-.65-.38-1.12.78-.93Z"/>
  <path class="cls-8" d="M169.87,241.78v19.62h-2.69v-19.05c.61-.88,1.72-.11,2.69-.58Z"/>
  <polygon class="cls-18" points="307.66 242.16 310.74 242.17 310.75 261.2 307.66 261.4 307.66 242.16"/>
  <path class="cls-24" d="M137.16,242.16v19.24h-2.69v-19.05c0-.93,2.11-.08,2.69-.19Z"/>
  <path class="cls-9" d="M493.94,136.36c-.13,4.68.87,10.26,5.63,12.26.7.29,4.39,1.11,4.38,1.4-2.6.77-5.42.41-7.52,2.49-2.3,2.26-2.09,5.05-2.48,7.91-.08.58-.05,1.18-.78,1.34.31-7.4-3.42-11.43-10.78-11.73,9.72-1.47,9.71-4.62,10.78-13.08.07-.53.27-1.22.76-.57Z"/>
</svg>