<?xml version="1.0" encoding="UTF-8"?>
<svg id="Capa_1" data-name="Capa 1" xmlns="http://www.w3.org/2000/svg" xmlns:xlink="http://www.w3.org/1999/xlink" viewBox="0 0 215.23 215.23">
  <defs>
    <style>
      .cls-1 {
        fill: #fff;
      }

      .cls-2 {
        stroke: url(#Degradado_sin_nombre_21);
        stroke-miterlimit: 10;
        stroke-width: 4px;
      }
    </style>
    <linearGradient id="Degradado_sin_nombre_21" data-name="Degradado sin nombre 21" x1="0" y1="107.61" x2="215.23" y2="107.61" gradientUnits="userSpaceOnUse">
      <stop offset="0" stop-color="#d4a4d7"/>
      <stop offset=".8" stop-color="#f6acc5"/>
    </linearGradient>
  </defs>
  <circle class="cls-2" cx="107.61" cy="107.61" r="105.61"/>
  <g>
    <path class="cls-1" d="M83.36,57.58c15.62.56,32.07-.98,47.6-.08,14.2.82,25.81,12.77,26.81,26.84-.75,15.22,1.01,31.4,0,46.5-.92,13.81-12.44,25.83-26.36,26.82-15.35,1.09-31.95-.81-47.42,0-15.6-1.67-25.87-13.37-26.6-28.88-.72-15.18.36-30.62.27-45.8,1.62-13.41,12.28-23.97,25.71-25.4ZM84.28,66.79c-9.25.82-17.08,8.4-17.69,17.76-1,15.19.78,31.46,0,46.76.85,9.26,8.56,16.89,17.86,17.6,14.98,1.15,31.38-.85,46.5,0,9.93-.94,17.23-8.89,17.86-18.75.97-15.25-.51-31.82-.3-47.14-1.46-8.87-8.84-15.5-17.78-16.29-15.04.91-31.57-1.25-46.44.07Z"/>
    <path class="cls-1" d="M105,81.99c21.8-1.8,36.34,21.58,24.41,40.06-11.4,17.66-38.42,14.76-46.01-4.79-6.13-15.78,4.63-33.88,21.6-35.28ZM105.23,90.96c-6.13.69-11.92,5.74-13.77,11.56-4.71,14.84,11.15,27.79,24.65,20.04,15.92-9.14,8.02-33.73-10.88-31.6Z"/>
    <path class="cls-1" d="M133.77,74.84c8.02-1,9.18,11.03,1.53,11.89-7.92.88-9.17-10.94-1.53-11.89Z"/>
  </g>
</svg>