<?xml version="1.0" encoding="UTF-8"?>
<svg id="Capa_1" data-name="Capa 1" xmlns="http://www.w3.org/2000/svg" xmlns:xlink="http://www.w3.org/1999/xlink" viewBox="0 0 214.04 214.04">
  <defs>
    <style>
      .cls-1 {
        fill: #fff;
      }

      .cls-2 {
        stroke: url(#Degradado_sin_nombre_21);
        stroke-miterlimit: 10;
        stroke-width: 4px;
      }
    </style>
    <linearGradient id="Degradado_sin_nombre_21" data-name="Degradado sin nombre 21" x1="209.92" y1="107.02" x2="423.95" y2="107.02" gradientTransform="translate(423.95) rotate(-180) scale(1 -1)" gradientUnits="userSpaceOnUse">
      <stop offset="0" stop-color="#d4a4d7"/>
      <stop offset=".8" stop-color="#f6acc5"/>
    </linearGradient>
  </defs>
  <circle class="cls-2" cx="107.02" cy="107.02" r="105.02"/>
  <path class="cls-1" d="M93.37,158.46c-.25,1.51-2.03,1.94-3.32,1.82-2.07-.19-7.41-2.9-9.4-3.99-30.01-16.48-37.69-56.5-15.68-82.93,23.65-28.4,68.18-25.54,88.1,5.5,18.28,28.48,6.38,66.52-24.45,79.8-2.4,1.03-7.02,3.4-7.84-.58-.28-5.61.37-11.58,0-17.15-.2-3.07-1.38-6.31-3.63-8.44,3.49-.26,7.06-1.01,10.33-2.25,8.72-3.32,13.16-10.1,14.31-19.23.94-7.48-.08-14.53-5.24-20.26,1.28-3.69,1.32-7.62.39-11.4-.15-.63-.64-2.46-.96-2.92-.12-.16-.16-.21-.37-.25-.43-.08-1.76-.04-2.25,0-4.27.37-8.94,3.47-12.52,5.63-8.88-2.36-18.41-2.41-27.28,0-2.84-1.71-5.7-3.53-8.88-4.64-1.99-.7-4.07-1.24-6.2-.94-2.03,4.47-2.38,9.88-.67,14.52-2.17,2.51-3.92,5.44-4.8,8.67-1.65,6.06-.7,14.96,2.11,20.6,4.19,8.4,13.01,11.64,21.88,12.53-2.01,1.97-2.96,4.55-3.41,7.29-4.11,1.81-8.73,2.11-12.47-.67s-4.53-7.58-9.4-9.13c-.95-.3-5.02-.85-4.98.73.04,1.27,2.79,2.58,3.66,3.34,1.39,1.22,2.99,3.76,3.84,5.42.64,1.25,1.05,2.63,1.83,3.8,3.61,5.44,11.58,5.36,17.3,4.16v10.95Z"/>
</svg>