<?xml version="1.0" encoding="UTF-8"?>
<svg id="Capa_3" data-name="Capa 3" xmlns="http://www.w3.org/2000/svg" xmlns:xlink="http://www.w3.org/1999/xlink" viewBox="0 0 1851.99 1008.27">
  <defs>
    <style>
      .cls-1 {
        stroke: #d3a0c9;
      }

      .cls-1, .cls-2, .cls-3, .cls-4 {
        fill: none;
      }

      .cls-1, .cls-3, .cls-4 {
        stroke-miterlimit: 10;
      }

      .cls-5 {
        fill: url(#Degradado_sin_nombre_25);
        opacity: .72;
      }

      .cls-2 {
        stroke-linecap: round;
        stroke-linejoin: round;
        stroke-width: 6px;
      }

      .cls-2, .cls-3, .cls-4 {
        stroke: #fff;
      }

      .cls-6 {
        fill: url(#Degradado_sin_nombre_25-2);
      }

      .cls-3 {
        stroke-width: 7px;
      }

      .cls-4 {
        stroke-width: .25px;
      }
    </style>
    <radialGradient id="Degradado_sin_nombre_25" data-name="Degradado sin nombre 25" cx="429.7" cy="288.12" fx="429.7" fy="288.12" r="462.37" gradientTransform="translate(-44.67 415.8) rotate(-25.29) scale(1.09 .88)" gradientUnits="userSpaceOnUse">
      <stop offset=".58" stop-color="#421c49"/>
      <stop offset=".71" stop-color="#633565"/>
      <stop offset=".99" stop-color="#b975ae"/>
      <stop offset="1" stop-color="#bc78b1"/>
    </radialGradient>
    <radialGradient id="Degradado_sin_nombre_25-2" data-name="Degradado sin nombre 25" cx="516.93" cy="473.27" fx="516.93" fy="473.27" r="462.37" gradientTransform="matrix(1,0,0,1,0,0)" xlink:href="#Degradado_sin_nombre_25"/>
  </defs>
  <line class="cls-2" x1="394.07" y1="362.55" x2="670.52" y2="362.55"/>
  <path class="cls-4" d="M1851.78,487.56c-.84,1.26-1.62,2.55-2.35,3.88-.88-1.43-1.67-2.91-2.35-4.43,1.59.13,3.16.31,4.7.55Z"/>
  <path class="cls-4" d="M1851.78,487.56c-.84,1.26-1.62,2.55-2.35,3.88-.88-1.43-1.67-2.91-2.35-4.43,1.59.13,3.16.31,4.7.55Z"/>
  <path class="cls-1" d="M1005.12,735.06c-61.42,109.13-181.09,226.74-322.64,163.46-27.15-12.14-57.35-15.65-86.62-10.44-16.07,2.86-31.96,6.69-47.56,11.57-75.78,23.71-157.99,18.32-229.36-21.85-83.72-47.11-134.29-131.81-145.07-225.53-7.39-64.23-28.01-126.22-62.43-180.96-49.32-78.44-57.01-176.14-11.35-257.26,47.3-84.05,139.53-128.39,235.86-123.46,61.39,3.14,122.67-12.12,174.24-45.53,83.54-54.11,193.58-61.16,286.4-8.93,74.68,42.03,122.36,113.55,136.61,191.73,9.48,52.01,29.78,101.72,62.56,143.22,72.78,92.15,80.41,237.7,9.36,363.96Z"/>
  <path class="cls-5" d="M966.58,237.65c43.06,91.15,56.32,228.38-78.42,304.75-25.84,14.65-47.17,35.18-61.43,58.74-7.83,12.94-14.83,26.15-20.87,39.61-29.34,65.35-84.28,123.02-158.36,158.02-86.89,41.05-181.18,41.96-257.53,10.02-52.32-21.89-111.17-33.18-173.19-31.33-88.86,2.65-166.24-33.23-198.25-100.99-33.17-70.2-8.97-156.31,54.38-224.47,40.38-43.44,67-94.62,74.13-146.43,11.54-83.91,74.49-167.17,170.83-212.68,77.52-36.62,160.22-41.02,227.16-18.21,44.54,15.18,94.06,21.48,145.22,15.2,113.59-13.94,226.51,42.31,276.33,147.76Z"/>
  <path class="cls-6" d="M996.38,494.35c0,115.07-42.8,263.18-184.58,276.3-27.19,2.52-52.94,13.31-74.02,30.68-11.57,9.53-22.56,19.76-32.85,30.7-49.97,53.14-118.18,85.87-193.39,85.87-88.21,0-166.83-45.03-217.67-115.22-34.84-48.1-79.26-88.45-131.46-116.78-74.79-40.59-124.95-115.36-124.95-200.9s53.84-165.7,133.14-205.16c50.55-25.15,92.71-64.99,118.94-114.99,42.48-80.98,127.37-136.22,225.17-136.22,78.7,0,149.06,35.78,195.68,91.97,31.01,37.38,69.65,68.03,114.57,86.5,99.74,41,171.41,154.11,171.41,287.24Z"/>
  <g>
    <polygon class="cls-3" points="687.69 403.29 622.33 439.78 568.97 469.55 516.92 498.6 464.86 470.48 411.53 441.66 346.17 406.33 516.92 307.98 687.69 403.29"/>
    <polygon class="cls-3" points="687.69 535.78 516.92 631.1 346.17 538.85 399.53 508.12 516.92 571.55 634.33 506.01 687.69 535.78"/>
    <polygon class="cls-3" points="687.69 476.24 634.33 506.01 516.92 571.55 399.53 508.12 346.17 479.3 411.53 441.66 464.86 470.48 516.92 498.6 568.97 469.55 622.33 439.78 687.69 476.24"/>
  </g>
</svg>