<?xml version="1.0" encoding="UTF-8"?>
<svg id="Capa_3" data-name="Capa 3" xmlns="http://www.w3.org/2000/svg" xmlns:xlink="http://www.w3.org/1999/xlink" viewBox="0 0 1851.99 975.44">
  <defs>
    <style>
      .cls-1 {
        stroke-linecap: round;
        stroke-width: 7px;
      }

      .cls-1, .cls-2 {
        stroke: #fff;
      }

      .cls-1, .cls-2, .cls-3 {
        fill: none;
        stroke-miterlimit: 10;
      }

      .cls-4 {
        fill: url(#Degradado_sin_nombre_35-2);
      }

      .cls-5 {
        fill: url(#Degradado_sin_nombre_35);
        opacity: .69;
      }

      .cls-2 {
        stroke-width: .25px;
      }

      .cls-3 {
        stroke: #308ab2;
      }
    </style>
    <radialGradient id="Degradado_sin_nombre_35" data-name="Degradado sin nombre 35" cx="547.01" cy="450.18" fx="547.01" fy="450.18" r="457.02" gradientUnits="userSpaceOnUse">
      <stop offset=".41" stop-color="#0c1725"/>
      <stop offset="1" stop-color="#5199c2"/>
    </radialGradient>
    <radialGradient id="Degradado_sin_nombre_35-2" data-name="Degradado sin nombre 35" cx="1095.56" cy="1070.41" fx="1095.56" fy="1070.41" r="457.02" gradientTransform="translate(1714.18 1375.86) rotate(174.34)" xlink:href="#Degradado_sin_nombre_35"/>
  </defs>
  <path class="cls-3" d="M861.37,797.6c-77.26,77.57-209.33,144.92-326.23,46.12-22.42-18.95-49.3-31.23-77.02-35.52-15.22-2.36-30.47-3.81-45.66-4.24-73.77-2.12-147.76-31.84-205.09-88.95-67.25-66.98-96.95-157.02-88.58-242.95,5.74-58.88-1.04-119.81-21.81-178.54-29.77-84.15-17.8-172.64,39.63-230.3C196.11,3.47,288.9-7.6,375.86,26.01c55.42,21.42,114.31,26.58,167.88,12.79,86.76-22.34,188.56,4.88,263.12,79.14,60,59.75,89.61,137.3,87.43,210.57-1.45,48.75,7.42,98.75,29.27,145.3,48.52,103.37,27.2,234.04-62.18,323.79Z"/>
  <path class="cls-5" d="M1045.25,506.95c-7.53,105.48-55.55,238.51-183.38,241.47-24.52.57-185.46,5.4-205.47,19.97-10.99,8-21.5,16.67-31.43,26.04-48.23,45.52-111.46,71.16-178.82,66.36-79-5.64-146.47-51.94-187.41-119.53-28.06-46.32-65.2-86.14-110.1-115.45-64.33-41.99-104.36-113.73-98.76-192.13,5.8-81.24-24.75-196.68,48.86-227.78,46.91-19.82,87.28-53.65,114.04-97.8,43.34-71.51,206.79-68.49,294.39-62.24,70.48,5.03,191.49-30.66,229.56,23.82,25.33,36.25,57.93,66.81,96.95,86.61,86.65,43.95,220.28,228.63,211.57,350.66Z"/>
  <path class="cls-4" d="M17.04,411.26c-2.91-105.7,31.77-242.82,158.69-258.37,24.34-2.98,184.03-23.66,202.5-40.13,10.15-9.04,19.75-18.71,28.71-29.01C450.45,33.69,510.85,1.94,578.36.09c79.18-2.18,150.87,37.25,198.28,100.48,32.49,43.33,73.37,79.3,120.94,104.03,68.16,35.44,115.06,102.89,117.22,181.46,2.24,81.42,44.01,193.28-26.17,231.49-44.73,24.35-81.57,61.99-103.85,108.56-36.08,75.44-199.03,88.54-286.82,90.95-70.63,1.94-187.53,49.39-230.79-1.08-28.78-33.57-64.23-60.78-105.02-76.63-90.56-35.2-241.74-205.8-245.1-328.1Z"/>
  <path class="cls-2" d="M1851.78,454.73c-.84,1.26-1.62,2.55-2.35,3.88-.88-1.43-1.67-2.91-2.35-4.43,1.59.13,3.16.31,4.7.55Z"/>
  <path class="cls-2" d="M1851.78,454.73c-.84,1.26-1.62,2.55-2.35,3.88-.88-1.43-1.67-2.91-2.35-4.43,1.59.13,3.16.31,4.7.55Z"/>
  <g>
    <polyline class="cls-1" points="444.02 344.65 347.14 409.24 444.02 481.58"/>
    <polyline class="cls-1" points="602.02 344.65 698.9 409.24 602.02 481.58"/>
    <line class="cls-1" x1="561.57" y1="303.31" x2="487.94" y2="535.83"/>
  </g>
</svg>