<?xml version="1.0" encoding="UTF-8"?>
<svg id="Capa_3" data-name="Capa 3" xmlns="http://www.w3.org/2000/svg" xmlns:xlink="http://www.w3.org/1999/xlink" viewBox="0 0 1851.99 1016.24">
  <defs>
    <style>
      .cls-1 {
        stroke-linecap: round;
        stroke-width: 7px;
      }

      .cls-1, .cls-2 {
        stroke: #fff;
      }

      .cls-1, .cls-2, .cls-3 {
        fill: none;
        stroke-miterlimit: 10;
      }

      .cls-4 {
        fill: url(#Degradado_sin_nombre_28-2);
      }

      .cls-5 {
        fill: url(#Degradado_sin_nombre_28);
        opacity: .7;
      }

      .cls-2 {
        stroke-width: .25px;
      }

      .cls-3 {
        stroke: #533b90;
      }
    </style>
    <radialGradient id="Degradado_sin_nombre_28" data-name="Degradado sin nombre 28" cx="1715.09" cy="1501.16" fx="1715.09" fy="1501.16" r="460.7" gradientTransform="translate(1356.61 -1642.96) rotate(69.99)" gradientUnits="userSpaceOnUse">
      <stop offset=".58" stop-color="#221d44"/>
      <stop offset=".75" stop-color="#432f64"/>
      <stop offset="1" stop-color="#7d509b"/>
    </radialGradient>
    <radialGradient id="Degradado_sin_nombre_28-2" data-name="Degradado sin nombre 28" cx="535.14" cy="477.49" fx="535.14" fy="477.49" r="460.7" gradientTransform="matrix(1,0,0,1,0,0)" xlink:href="#Degradado_sin_nombre_28"/>
  </defs>
  <path class="cls-3" d="M269.77,946.64c-98.43-53.49-202.62-163.75-139.31-306.98,12.14-27.47,16.45-57.4,12.67-85.86-2.07-15.63-5.04-31.01-8.99-46.05-19.19-73.04-11.33-154.24,28.21-226.99,46.37-85.33,126.22-140.44,212.98-156.99,59.46-11.34,117.32-35.55,169-72.88,74.04-53.48,164.36-67.24,237.52-27.48,75.81,41.2,113.43,129.11,105.49,224.16-5.06,60.59,6.86,119.89,35.83,168.5,46.93,78.74,49.56,186.52-1.86,281.14-41.37,76.12-108.97,127.55-181.54,146.52-48.28,12.62-94.81,35.74-134.22,70.62-87.5,77.43-221.93,94.16-335.81,32.28Z"/>
  <path class="cls-5" d="M679.53,939.25c93.38-34.01,25.17-168.36,91.81-273.79,12.86-20.35,32.3-37.3,55.35-45.69,110.19-40.13,164.86-167.65,122.17-284.85-42.69-117.2-166.56-179.69-276.75-139.55-23.9,8.7-79.95-15.69-91.84-43.25C530.85,37.55,419.51,13.37,295,58.73c-124.52,45.35-122.2,172.33-148.18,294.37-28.6,134.32-62.28,226.06-19.79,296.16,23.81,39.28,40.61,79.58,70.45,106.66,22.91,20.78,39.05,48.04,47.06,77.92,1.89,7.04,4.1,14.08,6.65,21.08,42.69,117.2,163.31,180.87,269.43,142.22,15.16-5.52,29.2-12.83,42.02-21.65,23.93-16.47,52.13-25.3,81.04-28.1,12.11-1.18,24.12-3.85,35.86-8.13ZM472.26,548.17c1.74,6.34,3.26,12.68,4.5,18.98-6.06-1.48-12.16-2.68-18.34-3.63,4.3-5.43,8.91-10.57,13.84-15.35Z"/>
  <path class="cls-4" d="M1014.62,496.23c0-99.38-149.58-81.26-225.84-179.96-14.72-19.05-23.99-43.11-23.99-67.64,0-117.27-101.11-212.28-225.84-212.28s-225.84,95.01-225.84,212.28c0,25.43-42.1,69.75-72.07,71.49-124.56,7.23-185.38,103.57-185.38,236.08s120.11,173.8,225.88,239.98c116.42,72.84,191.1,135.88,271.51,119.95,45.05-8.93,88.67-10.92,124.33-29.7,27.37-14.41,58.51-20.25,89.32-17.55,7.27.64,14.63.96,22.08.96,124.73,0,225.84-91.55,225.84-204.49,0-16.14-2.06-31.83-5.96-46.89-7.28-28.12-5.93-57.64,1.33-85.76,3.04-11.78,4.64-23.98,4.64-36.47Z"/>
  <path class="cls-2" d="M1851.78,495.54c-.84,1.26-1.62,2.55-2.35,3.88-.88-1.43-1.67-2.91-2.35-4.43,1.59.13,3.16.31,4.7.55Z"/>
  <path class="cls-2" d="M1851.78,495.54c-.84,1.26-1.62,2.55-2.35,3.88-.88-1.43-1.67-2.91-2.35-4.43,1.59.13,3.16.31,4.7.55Z"/>
  <path class="cls-1" d="M262.91,447.62c96.44-94.05,187.85-124.56,267,0,75.93,99.81,151.03,118.73,224.7,0"/>
  <path class="cls-1" d="M262.91,598.3c96.44-94.05,187.85-124.56,267,0,75.93,99.81,151.03,118.73,224.7,0"/>
</svg>