<?xml version="1.0" encoding="UTF-8"?>
<svg id="Capa_3" data-name="Capa 3" xmlns="http://www.w3.org/2000/svg" xmlns:xlink="http://www.w3.org/1999/xlink" viewBox="0 0 1851.99 1028.02">
  <defs>
    <style>
      .cls-1 {
        fill: url(#Degradado_sin_nombre_19-3);
        opacity: .74;
      }

      .cls-2, .cls-3, .cls-4, .cls-5, .cls-6 {
        fill: none;
      }

      .cls-2, .cls-3, .cls-6 {
        stroke-miterlimit: 10;
      }

      .cls-2, .cls-4 {
        stroke-width: 8px;
      }

      .cls-2, .cls-4, .cls-5, .cls-6 {
        stroke: #fff;
      }

      .cls-7 {
        fill: url(#Degradado_sin_nombre_19);
      }

      .cls-8 {
        fill: url(#Degradado_sin_nombre_19-2);
        opacity: .96;
      }

      .cls-3 {
        stroke: #6d2471;
      }

      .cls-4, .cls-5 {
        stroke-linecap: round;
        stroke-linejoin: round;
      }

      .cls-5 {
        stroke-width: 6px;
      }

      .cls-6 {
        stroke-width: .25px;
      }
    </style>
    <radialGradient id="Degradado_sin_nombre_19" data-name="Degradado sin nombre 19" cx="538.83" cy="472.12" fx="549.27" fy="495.67" r="472.99" gradientUnits="userSpaceOnUse">
      <stop offset=".58" stop-color="#231e46"/>
      <stop offset=".73" stop-color="#443463"/>
      <stop offset="1" stop-color="#8a63a0"/>
    </radialGradient>
    <radialGradient id="Degradado_sin_nombre_19-2" data-name="Degradado sin nombre 19" cx="615.19" cy="384.39" fx="625.62" fy="407.95" r="472.99" gradientTransform="translate(72.32 -71.25) rotate(16.51)" xlink:href="#Degradado_sin_nombre_19"/>
    <radialGradient id="Degradado_sin_nombre_19-3" data-name="Degradado sin nombre 19" cx="337.49" cy="559.24" fx="347.92" fy="582.8" r="472.99" gradientTransform="translate(-60.62 197.81) rotate(-35.48)" xlink:href="#Degradado_sin_nombre_19"/>
  </defs>
  <path class="cls-3" d="M996.35,778.13c-65.02,115.53-191.71,240.03-341.56,173.04-28.74-12.85-60.71-16.57-91.7-11.05-17.01,3.03-33.84,7.08-50.35,12.25-80.23,25.1-167.26,19.4-242.81-23.13-88.62-49.88-142.16-139.53-153.58-238.75-7.82-67.99-29.65-133.62-66.09-191.57C-1.94,415.88-10.08,312.46,38.25,226.58c50.08-88.98,147.72-135.92,249.69-130.7,64.99,3.33,129.86-12.83,184.46-48.2,88.43-57.28,204.93-64.75,303.19-9.45,79.06,44.5,129.53,120.2,144.62,202.98,10.04,55.06,31.53,107.68,66.23,151.62,77.05,97.56,85.13,251.64,9.91,385.3Z"/>
  <path class="cls-7" d="M1038.49,508.46c2.67,94.42-48.36,177.22-124.78,220.04-24.84,13.92-45.45,34.53-58.93,59.6-41.17,76.57-122.03,128.62-215.05,128.62-44.6,0-86.39-11.96-122.36-32.85-78.32-45.48-168.32-68.06-258.39-58.59-9.81,1.03-19.84,1.35-30.03.9-101.43-4.46-184.09-86.21-189.58-187.6-2.99-55.07,16.46-105.6,50.03-143.27,54.83-61.54,86-140.72,85.77-223.14,0-1.41,0-2.82.02-4.23,1.85-130.46,107.91-237.47,238.35-240.41,66.31-1.5,210.05,36.31,254.34,103.56,46.9,71.21,36.75,79.25,107.93,117.31.94.5,63.06,32.83,64.13,32.85,129.75,2.11,194.89,97.46,198.55,227.18Z"/>
  <path class="cls-8" d="M1021.63,648.96c-24.28,91.28-96.73,156.17-182.17,175.51-27.77,6.28-53.39,20.19-73.44,40.4-61.24,61.72-153.55,88.64-242.73,62.21-42.76-12.67-79.43-36.02-107.98-66.27-62.16-65.86-142.03-113.09-231.08-129.6-9.7-1.8-19.41-4.34-29.04-7.67C59.2,690.43,3.18,588.56,26.73,489.79c12.79-53.65,45.79-96.56,88.68-123.15,70.05-43.42,122.45-110.48,145.65-189.56.4-1.35.81-2.7,1.23-4.05C301.13,48.49,433.23-23.97,559.12,10.27c64,17.41,191.07,94.5,214.42,171.57,24.72,81.6,12.71,86.43,70.14,143.15.76.75,51.13,49.4,52.15,49.72,123.81,38.9,159.15,148.83,125.8,274.24Z"/>
  <path class="cls-1" d="M966.78,196.82c56.98,75.33,63.5,172.38,26.13,251.61-12.14,25.75-16.97,54.5-13.39,82.74,10.93,86.25-24.7,175.57-100.44,229.57-36.31,25.89-77.29,40.41-118.7,44.28-90.17,8.43-176.56,42.28-244.4,102.29-7.39,6.54-15.37,12.62-23.93,18.17-85.18,55.25-199.94,36.66-263.27-42.7-34.4-43.11-47.89-95.54-42.43-145.7,8.92-81.93-11.66-164.51-59.69-231.48-.82-1.14-1.63-2.3-2.44-3.46-74.22-107.3-49.98-256,54.52-334.12,53.12-39.71,192.11-92.37,267.22-63.32,79.52,30.76,75.93,43.2,155.98,32.87,1.06-.14,70.41-9.87,71.29-10.48,106.88-73.6,215.27-33.77,293.55,69.73Z"/>
  <path class="cls-2" d="M610.84,587h-232.48c-15.28,0-27.66-12.09-27.66-27v-193.7c0-14.91,12.39-27,27.66-27h307.37c15.28,0,27.66,12.09,27.66,27v185.71"/>
  <line class="cls-5" x1="394.07" y1="382.3" x2="670.52" y2="382.3"/>
  <line class="cls-4" x1="447.15" y1="633.32" x2="573.95" y2="633.32"/>
  <line class="cls-4" x1="514.97" y1="596.53" x2="514.97" y2="633.32"/>
  <polygon class="cls-5" points="594.96 500.99 633.29 664.65 670.52 620.42 712.91 664.65 746.82 633.32 713.42 592.3 746.82 565.87 594.96 500.99"/>
  <path class="cls-6" d="M1851.78,507.32c-.84,1.26-1.62,2.55-2.35,3.88-.88-1.43-1.67-2.91-2.35-4.43,1.59.13,3.16.31,4.7.55Z"/>
  <path class="cls-6" d="M1851.78,507.32c-.84,1.26-1.62,2.55-2.35,3.88-.88-1.43-1.67-2.91-2.35-4.43,1.59.13,3.16.31,4.7.55Z"/>
</svg>